<svg width="40" height="39" viewBox="0 0 40 39" fill="none" xmlns="http://www.w3.org/2000/svg">
<path fill-rule="evenodd" clip-rule="evenodd" d="M12.3579 9.86006V8.54539C12.3579 6.92928 12.354 6.01376 12.2974 5.34835C12.2796 5.13958 12.2599 5.00828 12.2464 4.93489C12.22 4.90113 12.1896 4.87073 12.1559 4.84435C12.0825 4.83092 11.9512 4.81118 11.7424 4.79342C11.077 4.73682 10.1615 4.73283 8.54539 4.73283C6.92928 4.73283 6.01376 4.73682 5.34835 4.79342C5.13958 4.81118 5.00828 4.83092 4.93489 4.84435C4.90113 4.87073 4.87073 4.90113 4.84435 4.93489C4.83092 5.00828 4.81118 5.13958 4.79342 5.34835C4.73682 6.01376 4.73283 6.92928 4.73283 8.54539V9.86006C4.73283 11.4762 4.73682 12.3917 4.79342 13.0571C4.81118 13.2659 4.83092 13.3972 4.84435 13.4706C4.87073 13.5043 4.90113 13.5347 4.93489 13.5611C5.00828 13.5745 5.13958 13.5943 5.34835 13.612C6.01376 13.6686 6.92928 13.6726 8.54539 13.6726C10.1615 13.6726 11.077 13.6686 11.7424 13.612C11.9512 13.5943 12.0825 13.5745 12.1559 13.5611C12.1896 13.5347 12.22 13.5043 12.2464 13.4706C12.2599 13.3972 12.2796 13.2659 12.2974 13.0571C12.354 12.3917 12.3579 11.4762 12.3579 9.86006ZM0.620941 2.77976C0 3.94146 0 5.4761 0 8.54539V9.86006C0 12.9293 0 14.464 0.620941 15.6257C1.11123 16.5429 1.8625 17.2942 2.77976 17.7845C3.94146 18.4054 5.4761 18.4054 8.54539 18.4054C11.6147 18.4054 13.1493 18.4054 14.311 17.7845C15.2283 17.2942 15.9795 16.5429 16.4698 15.6257C17.0908 14.464 17.0908 12.9293 17.0908 9.86006V8.54539C17.0908 5.4761 17.0908 3.94146 16.4698 2.77976C15.9795 1.8625 15.2283 1.11123 14.311 0.620941C13.1493 0 11.6147 0 8.54539 0C5.4761 0 3.94146 0 2.77976 0.620941C1.8625 1.11123 1.11123 1.8625 0.620941 2.77976ZM30.2383 4.73293H27.6089C25.664 4.73293 24.5616 4.73865 23.7677 4.81941C23.5304 4.84355 23.3802 4.86988 23.2944 4.88831C23.276 4.97411 23.2496 5.12429 23.2255 5.36159C23.1447 6.15548 23.139 7.25791 23.139 9.20283C23.139 11.1477 23.1447 12.2502 23.2255 13.0441C23.2496 13.2814 23.276 13.4315 23.2944 13.5173C23.3802 13.5358 23.5304 13.5621 23.7677 13.5862C24.5616 13.667 25.664 13.6727 27.6089 13.6727H30.2383C32.1832 13.6727 33.2856 13.667 34.0795 13.5862C34.3168 13.5621 34.467 13.5358 34.5528 13.5173C34.5712 13.4315 34.5975 13.2814 34.6217 13.0441C34.7024 12.2502 34.7082 11.1477 34.7082 9.20283C34.7082 7.25791 34.7024 6.15548 34.6217 5.36159C34.5975 5.12429 34.5712 4.97411 34.5528 4.88831C34.467 4.86988 34.3168 4.84355 34.0795 4.81941C33.2856 4.73865 32.1832 4.73293 30.2383 4.73293ZM23.2003 13.4934L23.2058 13.4953L23.2013 13.4938C23.2006 13.4936 23.2002 13.4934 23.2003 13.4934ZM23.3183 13.6115C23.3183 13.6115 23.3176 13.6097 23.3165 13.6059L23.3183 13.6115ZM23.3183 4.79419L23.3165 4.79973C23.3176 4.79592 23.3183 4.79413 23.3183 4.79419ZM23.2003 4.91224C23.2002 4.91221 23.202 4.91156 23.2058 4.91038L23.2003 4.91224ZM19.2924 2.33723C18.4062 3.66359 18.4062 5.51 18.4062 9.20283C18.4062 11.7379 18.4062 13.4028 18.6929 14.6267L18.6929 16.4201C18.6929 17.894 17.6518 19.1626 16.2062 19.4502L14.7289 19.7441C13.9095 19.7191 12.9565 19.7191 11.8323 19.7191H9.203C5.51017 19.7191 3.66376 19.7191 2.33739 20.6053C1.76319 20.989 1.27019 21.482 0.886522 22.0562C0.00027132 23.3826 0.00027132 25.229 0.00027132 28.9218C0.00027132 32.6146 0.00027132 34.461 0.886522 35.7874C1.27019 36.3616 1.76319 36.8546 2.33739 37.2383C3.66376 38.1245 5.51017 38.1245 9.203 38.1245H11.8323C15.5252 38.1245 17.3716 38.1245 18.698 37.2383C19.2721 36.8546 19.7652 36.3616 20.1488 35.7874C21.0351 34.461 21.0351 32.6146 21.0351 28.9218C21.0351 26.3397 21.0351 24.6604 20.7321 23.4303L20.7383 23.434L20.5846 21.8918C20.4219 20.2582 21.5652 18.7827 23.1876 18.5322L24.2222 18.3725L24.2064 18.3609C25.1333 18.4056 26.2452 18.4056 27.6089 18.4056H30.2383C33.9311 18.4056 35.7775 18.4056 37.1039 17.5193C37.6781 17.1356 38.1711 16.6426 38.5547 16.0684C39.441 14.7421 39.441 12.8957 39.441 9.20283C39.441 5.51 39.441 3.66359 38.5547 2.33723C38.1711 1.76303 37.6781 1.27002 37.1039 0.886354C35.7775 0.000102997 33.9311 0.000102997 30.2383 0.000102997H27.6089C23.9161 0.000102997 22.0697 0.000102997 20.7433 0.886354C20.1691 1.27002 19.6761 1.76303 19.2924 2.33723ZM27.0812 28.2645V29.5792C27.0812 31.1953 27.0852 32.1108 27.1418 32.7762C27.1595 32.985 27.1793 33.1163 27.1927 33.1897C27.2191 33.2234 27.2495 33.2538 27.2833 33.2802C27.3566 33.2936 27.4879 33.3134 27.6967 33.3311C28.3621 33.3877 29.2777 33.3917 30.8938 33.3917C32.5099 33.3917 33.4254 33.3877 34.0908 33.3311C34.2996 33.3134 34.4309 33.2936 34.5043 33.2802C34.538 33.2538 34.5684 33.2234 34.5948 33.1897C34.6082 33.1163 34.628 32.985 34.6457 32.7762C34.7023 32.1108 34.7063 31.1953 34.7063 29.5792V28.2645C34.7063 26.6484 34.7023 25.7329 34.6457 25.0674C34.628 24.8587 34.6082 24.7274 34.5948 24.654C34.5684 24.6202 34.538 24.5898 34.5043 24.5634C34.4309 24.55 34.2996 24.5303 34.0908 24.5125C33.4254 24.4559 32.5099 24.4519 30.8938 24.4519C29.2777 24.4519 28.3621 24.4559 27.6967 24.5125C27.4879 24.5303 27.3566 24.55 27.2833 24.5634C27.2495 24.5898 27.2191 24.6202 27.1927 24.654C27.1793 24.7274 27.1595 24.8587 27.1418 25.0674C27.0852 25.7329 27.0812 26.6484 27.0812 28.2645ZM39.4391 28.2645C39.4391 25.1952 39.4391 23.6606 38.8182 22.4989C38.3279 21.5816 37.5766 20.8303 36.6594 20.34C35.4977 19.7191 33.963 19.7191 30.8938 19.7191C27.8245 19.7191 26.2898 19.7191 25.1281 20.34C24.2109 20.8303 23.4596 21.5816 22.9693 22.4989C22.3484 23.6606 22.3484 25.1952 22.3484 28.2645V29.5792C22.3484 32.6484 22.3484 34.1831 22.9693 35.3448C23.4596 36.262 24.2109 37.0133 25.1281 37.5036C26.2898 38.1245 27.8245 38.1245 30.8938 38.1245C33.963 38.1245 35.4977 38.1245 36.6594 37.5036C37.5766 37.0133 38.3279 36.262 38.8182 35.3448C39.4391 34.1831 39.4391 32.6484 39.4391 29.5792V28.2645ZM9.203 24.4519H11.8323C13.7773 24.4519 14.8797 24.4576 15.6736 24.5384C15.9109 24.5625 16.0611 24.5889 16.1469 24.6073C16.1653 24.6931 16.1916 24.8433 16.2158 25.0806C16.2965 25.8745 16.3022 26.9769 16.3022 28.9218C16.3022 30.8667 16.2965 31.9692 16.2158 32.763C16.1916 33.0003 16.1653 33.1505 16.1469 33.2363C16.0611 33.2548 15.9109 33.2811 15.6736 33.3052C14.8797 33.386 13.7773 33.3917 11.8323 33.3917H9.203C7.25808 33.3917 6.15564 33.386 5.36176 33.3052C5.12445 33.2811 4.97428 33.2548 4.88848 33.2363C4.87005 33.1505 4.84372 33.0003 4.81958 32.763C4.73882 31.9692 4.7331 30.8667 4.7331 28.9218C4.7331 26.9769 4.73882 25.8745 4.81958 25.0806C4.84372 24.8433 4.87005 24.6931 4.88848 24.6073C4.97428 24.5889 5.12445 24.5625 5.36176 24.5384C6.15564 24.4576 7.25808 24.4519 9.203 24.4519ZM4.79436 24.6312L4.7999 24.6294C4.79609 24.6305 4.7943 24.6312 4.79436 24.6312ZM4.91241 24.5132C4.91238 24.5131 4.91173 24.5149 4.91054 24.5187L4.91241 24.5132ZM16.1229 24.5132L16.1248 24.5187C16.1236 24.5149 16.123 24.5131 16.1229 24.5132ZM16.241 24.6312C16.241 24.6312 16.2393 24.6305 16.2354 24.6294L16.241 24.6312Z" fill="white"/>
</svg>
